<svg xmlns="http://www.w3.org/2000/svg" viewBox="0 0 1600 960" role="img" aria-label="Kings Bible Compass hero art">
  <defs>
    <linearGradient id="sky" x1="0" y1="0" x2="0" y2="1">
      <stop offset="0%" stop-color="#f5d28c"/>
      <stop offset="45%" stop-color="#cf8d49"/>
      <stop offset="100%" stop-color="#4f2f21"/>
    </linearGradient>
    <linearGradient id="mountains" x1="0" y1="0" x2="1" y2="1">
      <stop offset="0%" stop-color="#5b412f"/>
      <stop offset="100%" stop-color="#2c1f18"/>
    </linearGradient>
    <linearGradient id="parchment" x1="0" y1="0" x2="1" y2="1">
      <stop offset="0%" stop-color="#f8ecd2"/>
      <stop offset="100%" stop-color="#d9b781"/>
    </linearGradient>
    <radialGradient id="sun" cx="50%" cy="28%" r="38%">
      <stop offset="0%" stop-color="#fff8d6" stop-opacity="1"/>
      <stop offset="45%" stop-color="#ffdf91" stop-opacity="0.85"/>
      <stop offset="100%" stop-color="#ffdf91" stop-opacity="0"/>
    </radialGradient>
    <filter id="shadow" x="-20%" y="-20%" width="140%" height="140%">
      <feDropShadow dx="0" dy="12" stdDeviation="18" flood-color="#2e160d" flood-opacity="0.35"/>
    </filter>
  </defs>

  <rect width="1600" height="960" fill="url(#sky)"/>
  <rect width="1600" height="960" fill="url(#sun)"/>

  <path d="M0 620 C180 560 260 520 420 540 C610 562 660 668 870 632 C1060 600 1180 486 1600 548 L1600 960 L0 960 Z" fill="#6f452f" opacity="0.7"/>
  <path d="M0 682 C220 612 344 598 506 636 C712 686 870 742 1128 682 C1314 640 1448 586 1600 604 L1600 960 L0 960 Z" fill="url(#mountains)"/>
  <path d="M0 774 C250 696 488 736 670 760 C904 790 1180 742 1600 706 L1600 960 L0 960 Z" fill="#231712"/>

  <g opacity="0.46" stroke="#ffe29e" stroke-width="8" stroke-linecap="round">
    <path d="M800 102 L800 350"/>
    <path d="M678 154 L924 298"/>
    <path d="M920 154 L674 298"/>
    <path d="M550 258 L1050 258"/>
  </g>

  <g transform="translate(1130 530)">
    <path d="M36 0 L72 104 L176 104 L92 168 L126 272 L36 208 L-54 272 L-20 168 L-104 104 L0 104 Z" fill="#f5d38d" opacity="0.16"/>
    <circle r="60" fill="#f5d38d" opacity="0.22"/>
  </g>

  <g transform="translate(1080 426)" fill="#2c1d14">
    <rect x="64" y="0" width="26" height="154" rx="8"/>
    <path d="M0 88 C40 54 78 42 152 46 C198 48 236 62 270 84 L270 116 C232 96 202 88 152 88 C98 88 50 102 0 128 Z"/>
    <rect x="118" y="150" width="62" height="22" rx="11"/>
  </g>

  <g transform="translate(168 630)" filter="url(#shadow)">
    <path d="M0 58 C70 18 186 0 320 0 C464 0 592 20 654 58 L614 196 C544 170 430 154 320 154 C208 154 102 170 40 196 Z" fill="#b57c3f"/>
    <path d="M42 74 C122 44 210 36 320 36 C432 36 530 46 608 74 L586 174 C512 154 428 146 320 146 C210 146 126 154 64 174 Z" fill="#f4dfb1"/>
    <path d="M320 36 L320 146" stroke="#a46a32" stroke-width="10"/>
    <path d="M322 34 C388 28 456 26 514 30 C508 62 504 98 504 138 C440 130 386 128 322 134 Z" fill="#f7efdd"/>
    <path d="M318 34 C252 28 184 26 126 30 C132 62 136 98 136 138 C200 130 254 128 318 134 Z" fill="#f9f2e3"/>
    <path d="M314 46 C242 44 198 48 152 58" stroke="#d0b583" stroke-width="4" opacity="0.6"/>
    <path d="M326 46 C398 44 442 48 488 58" stroke="#d0b583" stroke-width="4" opacity="0.6"/>
  </g>

  <g transform="translate(356 94)" filter="url(#shadow)">
    <path d="M0 70 L74 0 H828 L910 70 L840 164 H72 Z" fill="url(#parchment)" stroke="#a86c34" stroke-width="14"/>
    <path d="M-8 84 C22 44 34 28 74 0 L72 168 C26 154 8 134 -8 84 Z" fill="#8b5d32"/>
    <path d="M918 84 C888 44 876 28 836 0 L838 168 C884 154 902 134 918 84 Z" fill="#8b5d32"/>
    <text x="452" y="108" text-anchor="middle" font-size="84" font-family="Georgia, serif" fill="#6b3d22">Kings Bible Compass</text>
    <g transform="translate(452 26)">
      <circle r="34" fill="#b88037"/>
      <circle r="18" fill="#f6e2ae"/>
      <path d="M0 -64 L18 -18 L64 0 L18 18 L0 64 L-18 18 L-64 0 L-18 -18 Z" fill="#e7c57f"/>
    </g>
  </g>
</svg>
